<mxfile host="app.diagrams.net" modified="2023-12-17T15:47:11.753Z" agent="Mozilla/5.0 (Windows NT 10.0; Win64; x64) AppleWebKit/537.36 (KHTML, like Gecko) Chrome/120.0.0.0 Safari/537.36 Edg/120.0.0.0" etag="cKszsFRQL2H6TSochHsH" version="22.1.11" type="device">
  <diagram name="Страница — 1" id="ZZ2EfaBm7a6IDFJKJsze">
    <mxGraphModel dx="1072" dy="633" grid="1" gridSize="10" guides="1" tooltips="1" connect="1" arrows="1" fold="1" page="1" pageScale="1" pageWidth="827" pageHeight="1169" math="0" shadow="0">
      <root>
        <mxCell id="0" />
        <mxCell id="1" parent="0" />
        <mxCell id="qhTMZGh4AH9Fs-Bt4C3k-4" value="" style="edgeStyle=orthogonalEdgeStyle;rounded=0;orthogonalLoop=1;jettySize=auto;html=1;" parent="1" source="qhTMZGh4AH9Fs-Bt4C3k-1" target="qhTMZGh4AH9Fs-Bt4C3k-3" edge="1">
          <mxGeometry relative="1" as="geometry" />
        </mxCell>
        <mxCell id="qhTMZGh4AH9Fs-Bt4C3k-1" value="slen (char *s)" style="strokeWidth=1;html=1;shape=mxgraph.flowchart.terminator;whiteSpace=wrap;" parent="1" vertex="1">
          <mxGeometry x="300" y="50" width="120" height="60" as="geometry" />
        </mxCell>
        <mxCell id="qhTMZGh4AH9Fs-Bt4C3k-7" value="" style="edgeStyle=orthogonalEdgeStyle;rounded=0;orthogonalLoop=1;jettySize=auto;html=1;" parent="1" source="qhTMZGh4AH9Fs-Bt4C3k-3" target="qhTMZGh4AH9Fs-Bt4C3k-5" edge="1">
          <mxGeometry relative="1" as="geometry" />
        </mxCell>
        <mxCell id="qhTMZGh4AH9Fs-Bt4C3k-3" value="i = 0" style="rounded=0;whiteSpace=wrap;html=1;" parent="1" vertex="1">
          <mxGeometry x="300" y="170" width="120" height="60" as="geometry" />
        </mxCell>
        <mxCell id="gV_0Cxts8DzmQKQQi6Z_-28" style="edgeStyle=orthogonalEdgeStyle;rounded=0;orthogonalLoop=1;jettySize=auto;html=1;" edge="1" parent="1" source="qhTMZGh4AH9Fs-Bt4C3k-5" target="gV_0Cxts8DzmQKQQi6Z_-27">
          <mxGeometry relative="1" as="geometry" />
        </mxCell>
        <mxCell id="qhTMZGh4AH9Fs-Bt4C3k-5" value="s[0] != &#39;\0&#39;?" style="rhombus;whiteSpace=wrap;html=1;" parent="1" vertex="1">
          <mxGeometry x="290" y="280" width="140" height="80" as="geometry" />
        </mxCell>
        <mxCell id="qhTMZGh4AH9Fs-Bt4C3k-15" value="да" style="text;html=1;strokeColor=none;fillColor=none;align=center;verticalAlign=middle;whiteSpace=wrap;rounded=0;" parent="1" vertex="1">
          <mxGeometry x="412" y="290" width="60" height="30" as="geometry" />
        </mxCell>
        <mxCell id="qhTMZGh4AH9Fs-Bt4C3k-16" value="нет" style="text;html=1;strokeColor=none;fillColor=none;align=center;verticalAlign=middle;whiteSpace=wrap;rounded=0;" parent="1" vertex="1">
          <mxGeometry x="350" y="350" width="60" height="30" as="geometry" />
        </mxCell>
        <mxCell id="qhTMZGh4AH9Fs-Bt4C3k-43" value="&lt;font style=&quot;font-size: 24px;&quot;&gt;1&lt;/font&gt;" style="text;html=1;strokeColor=none;fillColor=none;align=center;verticalAlign=middle;whiteSpace=wrap;rounded=0;" parent="1" vertex="1">
          <mxGeometry x="330" y="10" width="60" height="30" as="geometry" />
        </mxCell>
        <mxCell id="qhTMZGh4AH9Fs-Bt4C3k-44" value="&lt;font style=&quot;font-size: 24px;&quot;&gt;2&lt;/font&gt;" style="text;html=1;strokeColor=none;fillColor=none;align=center;verticalAlign=middle;whiteSpace=wrap;rounded=0;" parent="1" vertex="1">
          <mxGeometry x="530" y="10" width="60" height="30" as="geometry" />
        </mxCell>
        <mxCell id="qhTMZGh4AH9Fs-Bt4C3k-46" value="&lt;font style=&quot;font-size: 24px;&quot;&gt;A&lt;/font&gt;" style="text;html=1;strokeColor=none;fillColor=none;align=center;verticalAlign=middle;whiteSpace=wrap;rounded=0;" parent="1" vertex="1">
          <mxGeometry x="170" y="65" width="60" height="30" as="geometry" />
        </mxCell>
        <mxCell id="qhTMZGh4AH9Fs-Bt4C3k-47" value="&lt;font style=&quot;font-size: 24px;&quot;&gt;B&lt;/font&gt;" style="text;html=1;strokeColor=none;fillColor=none;align=center;verticalAlign=middle;whiteSpace=wrap;rounded=0;" parent="1" vertex="1">
          <mxGeometry x="170" y="185" width="60" height="30" as="geometry" />
        </mxCell>
        <mxCell id="qhTMZGh4AH9Fs-Bt4C3k-48" value="&lt;font style=&quot;font-size: 24px;&quot;&gt;C&lt;/font&gt;" style="text;html=1;strokeColor=none;fillColor=none;align=center;verticalAlign=middle;whiteSpace=wrap;rounded=0;" parent="1" vertex="1">
          <mxGeometry x="170" y="305" width="60" height="30" as="geometry" />
        </mxCell>
        <mxCell id="qhTMZGh4AH9Fs-Bt4C3k-49" value="&lt;font style=&quot;font-size: 24px;&quot;&gt;D&lt;/font&gt;" style="text;html=1;strokeColor=none;fillColor=none;align=center;verticalAlign=middle;whiteSpace=wrap;rounded=0;" parent="1" vertex="1">
          <mxGeometry x="170" y="425" width="60" height="30" as="geometry" />
        </mxCell>
        <mxCell id="gV_0Cxts8DzmQKQQi6Z_-29" style="edgeStyle=orthogonalEdgeStyle;rounded=0;orthogonalLoop=1;jettySize=auto;html=1;" edge="1" parent="1" source="gV_0Cxts8DzmQKQQi6Z_-27" target="qhTMZGh4AH9Fs-Bt4C3k-5">
          <mxGeometry relative="1" as="geometry">
            <Array as="points">
              <mxPoint x="560" y="260" />
              <mxPoint x="360" y="260" />
            </Array>
          </mxGeometry>
        </mxCell>
        <mxCell id="gV_0Cxts8DzmQKQQi6Z_-27" value="i += 1" style="rounded=0;whiteSpace=wrap;html=1;" vertex="1" parent="1">
          <mxGeometry x="500" y="290" width="120" height="60" as="geometry" />
        </mxCell>
        <mxCell id="gV_0Cxts8DzmQKQQi6Z_-30" value="return i" style="strokeWidth=1;html=1;shape=mxgraph.flowchart.terminator;whiteSpace=wrap;" vertex="1" parent="1">
          <mxGeometry x="300" y="410" width="120" height="60" as="geometry" />
        </mxCell>
        <mxCell id="gV_0Cxts8DzmQKQQi6Z_-32" style="edgeStyle=orthogonalEdgeStyle;rounded=0;orthogonalLoop=1;jettySize=auto;html=1;entryX=0.5;entryY=0;entryDx=0;entryDy=0;entryPerimeter=0;" edge="1" parent="1" source="qhTMZGh4AH9Fs-Bt4C3k-5" target="gV_0Cxts8DzmQKQQi6Z_-30">
          <mxGeometry relative="1" as="geometry" />
        </mxCell>
      </root>
    </mxGraphModel>
  </diagram>
</mxfile>
